<svg width="126" height="126" viewBox="0 0 126 126" fill="none" xmlns="http://www.w3.org/2000/svg">
<path d="M106.013 83.8236L78.3613 108.276L41.5182 106.013L17.0661 78.3612L19.3287 41.5181L46.9806 17.066L83.8237 19.3286L108.276 46.9805L106.013 83.8236Z" fill="#CEF564" stroke="#016450" stroke-width="2"/>
<path d="M52.399 69.1027L49.6403 65.3141L49.6101 65.3245C49.6498 65.4236 49.7094 65.5723 49.7889 65.7706C49.8684 65.9688 49.9531 66.1822 50.043 66.4108C50.1312 66.6342 50.2074 66.8393 50.2715 67.0259L51.1356 69.5374L50.1144 69.8887L48.2561 64.4875L49.8144 63.9513L52.5139 67.6418L52.5366 67.634L52.4697 63.0378L54.028 62.5016L55.8863 67.9029L54.8197 68.2699L53.94 65.713C53.881 65.5415 53.8158 65.344 53.7445 65.1203C53.6783 64.8949 53.6138 64.6831 53.5512 64.4846C53.4919 64.2794 53.4474 64.1255 53.4178 64.0229L53.3875 64.0333L53.4505 68.741L52.399 69.1027ZM60.5565 66.2961L59.7207 65.1454L57.7539 65.8221L57.8029 67.2435L56.5699 67.6677L56.6101 61.5879L58.0096 61.1064L61.7896 65.8719L60.5565 66.2961ZM58.2924 63.158C58.2377 63.0809 58.1676 62.9838 58.0822 62.8665C57.9967 62.7493 57.9104 62.6295 57.8232 62.5073C57.736 62.385 57.6624 62.2777 57.6025 62.1855C57.612 62.2951 57.6201 62.4333 57.6267 62.6002C57.6367 62.7604 57.645 62.9154 57.6515 63.0655C57.6613 63.2088 57.6656 63.3116 57.6645 63.374L57.7108 64.7625L59.1178 64.2784L58.2924 63.158ZM66.8991 64.114L65.7568 64.507L64.9552 62.177L62.8143 62.9136L63.616 65.2435L62.4737 65.6365L60.6154 60.2353L61.7576 59.8423L62.4864 61.9604L64.6272 61.2239L63.8985 59.1057L65.0408 58.7127L66.8991 64.114ZM69.8115 57.0713L70.1368 58.0169L67.8674 58.7977L69.4004 63.2534L68.2581 63.6464L66.3998 58.2451L69.8115 57.0713ZM76.321 57.8436C76.5136 58.4034 76.5886 58.9247 76.546 59.4075C76.5067 59.8835 76.3379 60.3025 76.0395 60.6647C75.741 61.0268 75.2968 61.3093 74.7067 61.5124C74.1217 61.7136 73.5977 61.7642 73.1346 61.6641C72.6765 61.5622 72.2822 61.3341 71.9516 60.9797C71.626 60.6236 71.3669 60.1656 71.1743 59.6058C70.9817 59.0461 70.9051 58.5282 70.9443 58.0521C70.9887 57.5744 71.1609 57.157 71.4611 56.7999C71.7645 56.4361 72.2113 56.1526 72.8013 55.9496C73.3864 55.7483 73.9079 55.6986 74.3659 55.8005C74.8223 55.8973 75.2132 56.1238 75.5388 56.4799C75.8676 56.8292 76.1284 57.2838 76.321 57.8436ZM72.3797 59.1996C72.5741 59.7644 72.836 60.1734 73.1657 60.4266C73.4936 60.6748 73.8971 60.7165 74.3762 60.5516C74.8654 60.3833 75.1604 60.1013 75.2611 59.7057C75.3602 59.305 75.3125 58.8223 75.1182 58.2574C74.9221 57.6875 74.6626 57.2777 74.3398 57.0278C74.0169 56.7779 73.6134 56.7362 73.1293 56.9028C72.6451 57.0694 72.3501 57.3513 72.2443 57.7487C72.1385 58.1461 72.1837 58.6297 72.3797 59.1996Z" fill="#016450"/>
</svg>
